P3
5 5
255
13
146
231
13
146
231
59
231
13
59
231
13
13
146
231
231
208
13
225
17
17
46
222
183
59
231
13
13
146
231
231
208
13
46
222
183
225
17
17
59
231
13
13
28
231
231
208
13
231
208
13
231
208
13
225
17
17
13
28
231
113
15
196
113
15
196
0
0
0
255
255
255
255
255
255
