P1
# CREATOR: GIMP PNM Filter Version 1.1
11 11
0001111100000111111100011111111101111111100011111110000111111000111111
111000011111111000011111111100011111110000011111000